<?xml version="1.0" standalone="no"?><svg xmlns="http://www.w3.org/2000/svg" viewBox="0 0 1440 320"><path fill="#eed3d9" fill-opacity="1" d="M0,160L0,96L90,96L90,128L180,128L180,256L270,256L270,64L360,64L360,224L450,224L450,288L540,288L540,288L630,288L630,160L720,160L720,256L810,256L810,32L900,32L900,224L990,224L990,288L1080,288L1080,32L1170,32L1170,192L1260,192L1260,64L1350,64L1350,64L1440,64L1440,320L1350,320L1350,320L1260,320L1260,320L1170,320L1170,320L1080,320L1080,320L990,320L990,320L900,320L900,320L810,320L810,320L720,320L720,320L630,320L630,320L540,320L540,320L450,320L450,320L360,320L360,320L270,320L270,320L180,320L180,320L90,320L90,320L0,320L0,320Z"></path></svg>